{"title":"Star Trek III:The Search for Spock(1984)MPEG-4[DaScubaDude]","uid":15358133,"size":1148867501,"categoryP":"video","categoryS":"movies","magnet":"?xt=urn:btih:99e6b94b99110c9e2d4759390f4e9b2e337e8e55&amp;dn=Star+Trek+III%3AThe+Search+for+Spock%281984%29MPEG-4%5BDaScubaDude%5D&amp;tr=udp%3A%2F%2Ftracker.leechers-paradise.org%3A6969&amp;tr=udp%3A%2F%2Fzer0day.ch%3A1337&amp;tr=udp%3A%2F%2Fopen.demonii.com%3A1337&amp;tr=udp%3A%2F%2Ftracker.coppersurfer.tk%3A6969&amp;tr=udp%3A%2F%2Fexodus.desync.com%3A6969","seeders":2,"leechers":0,"uploader":"dascuba","files":1,"time":1469004978,"description":"Star Trek III: The Search for Spock (1984)\r\nPG | 1h 45min | Action, Adventure, Sci-Fi | 1 June 1984 (USA)\r\nAdmiral Kirk and his bridge crew risk their careers stealing the decommissioned Enterprise to return to the restricted Genesis planet to recover Spock's body.\r\nDirector: Leonard Nimoy\r\nWriters: Gene Roddenberry (television series Star Trek), Harve Bennett\r\nStars: William Shatner, Leonard Nimoy, DeForest Kelley |\r\n\r\nGeneral\r\nComplete name                            : Voyage HomeSTAR_TREK_III_DOM_Title1.mp4\r\nFormat                                   : MPEG-4\r\nFormat profile                           : Base Media\r\nCodec ID                                 : isom (isom/iso2/avc1/mp41)\r\nFile size                                : 1.07 GiB\r\nDuration                                 : 1h 45mn\r\nOverall bit rate                         : 1 457 Kbps\r\nMovie name                               : STAR_TREK_III_DOM\r\nGenre                                    : Science_Fiction\r\nWriting application                      : Lavf54.6.100\r\n\r\nVideo\r\nID                                       : 1\r\nFormat                                   : AVC\r\nFormat/Info                              : Advanced Video Codec\r\nFormat profile                           :   \r\nFormat settings, CABAC                   : No\r\nFormat settings, ReFrames                : 6 frames\r\nCodec ID                                 : avc1\r\nCodec ID/Info                            : Advanced Video Coding\r\nDuration                                 : 1h 45mn\r\nBit rate                                 : 1 198 Kbps\r\nWidth                                    : 720 pixels\r\nHeight                                   : 404 pixels\r\nDisplay aspect ratio                     : 16:9\r\nFrame rate mode                          : Constant\r\nFrame rate                               : 29.970 (30000/1001) fps\r\nColor space                              : YUV\r\nChroma subsampling                       : 4:2:0\r\nBit depth                                : 8 bits\r\nScan type                                : Progressive\r\nBits/(Pixel*Frame)                       : 0.137\r\nStream size                              : 901 MiB (82%)\r\n\r\nAudio\r\nID                                       : 2\r\nFormat                                   : AAC\r\nFormat/Info                              : Advanced Audio Codec\r\nFormat profile                           : LC\r\nCodec ID                                 : 40\r\nDuration                                 : 1h 45mn\r\nBit rate mode                            : Constant\r\nBit rate                                 : 253 Kbps\r\nChannel(s)                               : 2 channels\r\nChannel(s)_Original                      : 6 channels\r\nChannel positions                        : Front: L C R, Side: L R, LFE\r\nSampling rate                            : 44.1 KHz\r\nFrame rate                               : 43.066 fps (1024 spf)\r\nCompression mode                         : Lossy\r\nStream size                              : 190 MiB (17%)\r\nDefault                                  : Yes\r\nAlternate group                          : 1","torrent":{"xt":"urn:btih:99e6b94b99110c9e2d4759390f4e9b2e337e8e55","amp;dn":"Star+Trek+III%3AThe+Search+for+Spock%281984%29MPEG-4%5BDaScubaDude%5D","amp;tr":["udp%3A%2F%2Ftracker.leechers-paradise.org%3A6969","udp%3A%2F%2Fzer0day.ch%3A1337","udp%3A%2F%2Fopen.demonii.com%3A1337","udp%3A%2F%2Ftracker.coppersurfer.tk%3A6969","udp%3A%2F%2Fexodus.desync.com%3A6969"],"infoHash":"99e6b94b99110c9e2d4759390f4e9b2e337e8e55","infoHashBuffer":{"type":"Buffer","data":[153,230,185,75,153,17,12,158,45,71,89,57,15,78,155,46,51,126,142,85]},"announce":[],"urlList":[]}}